<svg width="20" height="28" viewBox="0 0 20 28" fill="none" xmlns="http://www.w3.org/2000/svg">
<path fill-rule="evenodd" clip-rule="evenodd" d="M13.75 1H17.5L12.5683 5.93173C11.2731 5.02921 9.69833 4.5 8 4.5C3.58172 4.5 0 8.08172 0 12.5C0 16.7504 3.31464 20.2265 7.5 20.4846V23.5H4V24.5H7.5V27.5H8.5V24.5H12V23.5H8.5V20.4846C12.6854 20.2265 16 16.7504 16 12.5C16 10.1418 14.9797 8.02196 13.3564 6.55779L18.25 1.66421V5.5H19.25V0.5V0H18.75H13.75V1ZM8 19.5C11.866 19.5 15 16.366 15 12.5C15 8.63401 11.866 5.5 8 5.5C4.13401 5.5 1 8.63401 1 12.5C1 16.366 4.13401 19.5 8 19.5Z" fill="#999999"/>
</svg>
