<svg width="12" height="17" viewBox="0 0 12 17" fill="none" xmlns="http://www.w3.org/2000/svg">
<path fill-rule="evenodd" clip-rule="evenodd" d="M12 6C12 7.13024 11.6875 8.18749 11.1442 9.09005L6.86602 16.5C6.48112 17.1667 5.51887 17.1667 5.13397 16.5L0.855892 9.09014C0.312532 8.18756 0 7.13028 0 6C0 2.68629 2.68629 0 6 0C9.31371 0 12 2.68629 12 6ZM6 7.71429C6.94677 7.71429 7.71429 6.94677 7.71429 6C7.71429 5.05323 6.94677 4.28571 6 4.28571C5.05323 4.28571 4.28571 5.05323 4.28571 6C4.28571 6.94677 5.05323 7.71429 6 7.71429Z" fill="#999999"/>
</svg>
