<svg width="18" height="28" viewBox="0 0 18 28" fill="none" xmlns="http://www.w3.org/2000/svg">
<path fill-rule="evenodd" clip-rule="evenodd" d="M15 1H3C1.89543 1 1 1.89543 1 3V25C1 26.1046 1.89543 27 3 27H15C16.1046 27 17 26.1046 17 25V3C17 1.89543 16.1046 1 15 1ZM3 0C1.34315 0 0 1.34315 0 3V25C0 26.6569 1.34315 28 3 28H15C16.6569 28 18 26.6569 18 25V3C18 1.34315 16.6569 0 15 0H3ZM13 26H5V25H13V26ZM6 2C5.44772 2 5 2.44772 5 3C5 3.55228 5.44772 4 6 4H12C12.5523 4 13 3.55228 13 3C13 2.44772 12.5523 2 12 2H6Z" fill="#999999"/>
</svg>
