<svg width="20" height="27" viewBox="0 0 20 27" fill="none" xmlns="http://www.w3.org/2000/svg">
<path fill-rule="evenodd" clip-rule="evenodd" d="M10 0C7.51472 0 5.5 2.01472 5.5 4.5V8.06729C2.23742 9.71411 0 13.0958 0 17C0 22.5228 4.47715 27 10 27C15.5228 27 20 22.5228 20 17C20 13.0958 17.7626 9.71411 14.5 8.06729V4.5C14.5 2.01472 12.4853 0 10 0ZM13.5 7.62961V4.5C13.5 2.567 11.933 1 10 1C8.067 1 6.5 2.567 6.5 4.5V7.62961C7.58934 7.22255 8.76868 7 10 7C11.2313 7 12.4107 7.22255 13.5 7.62961ZM19 17C19 21.9706 14.9706 26 10 26C5.02944 26 1 21.9706 1 17C1 12.0294 5.02944 8 10 8C14.9706 8 19 12.0294 19 17Z" fill="#999999"/>
<path fill-rule="evenodd" clip-rule="evenodd" d="M10.5 16.937C11.3626 16.715 12 15.9319 12 15C12 13.8954 11.1046 13 10 13C8.89543 13 8 13.8954 8 15C8 15.9319 8.63739 16.715 9.5 16.937V21H10.5V16.937Z" fill="#999999"/>
</svg>
