<svg width="25" height="20" viewBox="0 0 25 20" fill="none" xmlns="http://www.w3.org/2000/svg">
<path fill-rule="evenodd" clip-rule="evenodd" d="M3 1H22C23.1046 1 24 1.89543 24 3V6.17915L12.5 11.45L1 6.17915V3C1 1.89543 1.89543 1 3 1ZM1 7.27918V17C1 18.1046 1.89543 19 3 19H22C23.1046 19 24 18.1046 24 17V7.27918L12.7083 12.4545C12.5761 12.5152 12.4239 12.5152 12.2917 12.4545L1 7.27918ZM0 3C0 1.34315 1.34315 0 3 0H22C23.6569 0 25 1.34315 25 3V17C25 18.6569 23.6569 20 22 20H3C1.34315 20 0 18.6569 0 17V3Z" fill="#999999"/>
</svg>
