<svg width="12" height="12" viewBox="0 0 12 12" fill="none" xmlns="http://www.w3.org/2000/svg">
<path fill-rule="evenodd" clip-rule="evenodd" d="M8.25924 4.62962C8.25924 6.63421 6.63421 8.25924 4.62962 8.25924C2.62504 8.25924 1 6.63421 1 4.62962C1 2.62504 2.62504 1 4.62962 1C6.63421 1 8.25924 2.62504 8.25924 4.62962ZM7.53067 8.23778C6.73693 8.87678 5.72794 9.25924 4.62962 9.25924C2.07275 9.25924 0 7.18649 0 4.62962C0 2.07275 2.07275 0 4.62962 0C7.18649 0 9.25924 2.07275 9.25924 4.62962C9.25924 5.72794 8.87678 6.73693 8.23778 7.53067L11.2662 10.5591L10.5591 11.2662L7.53067 8.23778Z" fill="#0447CC"/>
</svg>
