<svg width="23" height="23" viewBox="0 0 23 23" fill="none" xmlns="http://www.w3.org/2000/svg">
<path fill-rule="evenodd" clip-rule="evenodd" d="M17.95 9.6082C17.95 14.2153 14.2152 17.9502 9.60808 17.9502C5.00094 17.9502 1.26611 14.2153 1.26611 9.6082C1.26611 5.00106 5.00094 1.26624 9.60808 1.26624C14.2152 1.26624 17.95 5.00106 17.95 9.6082ZM15.8508 16.5582C14.1963 18.0453 12.0078 18.9502 9.60808 18.9502C4.44865 18.9502 0.266113 14.7676 0.266113 9.6082C0.266113 4.44878 4.44865 0.266235 9.60808 0.266235C14.7675 0.266235 18.95 4.44878 18.95 9.6082C18.95 12.0081 18.0451 14.1966 16.5579 15.8511L22.6398 21.933L21.9327 22.6401L15.8508 16.5582Z" fill="#666666"/>
</svg>
